<?xml version="1.0" encoding="UTF-8"?>
<svg version="1.1" xmlns="http://www.w3.org/2000/svg" width="100" height="100">
<path d="M0 0 C1.35085807 -0.63040043 2.68252676 -1.30251417 4 -2 C7.63011413 -2.5584791 9.99470737 -2.59924027 13.1953125 -0.69140625 C15.57664629 1.08819266 17.89547451 2.89547451 20 5 C20.1009312 7.40750601 20.13869071 9.78021762 20.125 12.1875 C20.12886719 14.15783203 20.12886719 14.15783203 20.1328125 16.16796875 C20.01530134 19.55851129 19.60654851 22.67114714 19 26 C18.96296931 27.99965715 18.95239444 30.00056665 19 32 C18.01 32.33 17.02 32.66 16 33 C15.96036133 33.71542969 15.92072266 34.43085937 15.87988281 35.16796875 C15.68795469 38.44665244 15.46919526 41.72303083 15.25 45 C15.1571875 46.68802734 15.1571875 46.68802734 15.0625 48.41015625 C14.58428118 55.22477441 13.75646809 60.22919395 10 66 C4.90206005 69.16932968 -0.13703273 69.31408753 -6 69 C-6.33 68.01 -6.66 67.02 -7 66 C-8.99817859 65.50864461 -10.99849457 65.02318676 -13.01171875 64.59765625 C-15.76160436 63.77106981 -17.06313409 62.0659903 -19 60 C-20.010625 59.773125 -21.02125 59.54625 -22.0625 59.3125 C-25 58 -25 58 -25.9453125 56.3359375 C-27.15665643 52.8294156 -27.94015721 49.28458573 -28.703125 45.65625 C-28.94546875 44.5115625 -29.1878125 43.366875 -29.4375 42.1875 C-29.64246094 41.10855469 -29.84742188 40.02960937 -30.05859375 38.91796875 C-31.12154634 35.62325677 -32.52735371 34.34063643 -35 32 C-35 31.01 -35 30.02 -35 29 C-34.01 29 -33.02 29 -32 29 C-32.15855469 28.45085938 -32.31710938 27.90171875 -32.48046875 27.3359375 C-33.75488487 21.60585599 -34.03026143 15.88289159 -31.1875 10.6875 C-30.465625 9.800625 -29.74375 8.91375 -29 8 C-28.505 6.948125 -28.01 5.89625 -27.5 4.8125 C-25.88246181 1.77961589 -25.03917255 0.56065618 -22 -1 C-14.34382268 -2.42742289 -7.27111612 -2.90844645 0 0 Z " fill="#D6B392" transform="translate(62,16)"/>
<path d="M0 0 C1.35085807 -0.63040043 2.68252676 -1.30251417 4 -2 C7.63011413 -2.5584791 9.99470737 -2.59924027 13.1953125 -0.69140625 C15.57664629 1.08819266 17.89547451 2.89547451 20 5 C20.1009312 7.40750601 20.13869071 9.78021762 20.125 12.1875 C20.12886719 14.15783203 20.12886719 14.15783203 20.1328125 16.16796875 C20.01530134 19.55851129 19.60654851 22.67114714 19 26 C18.96296931 27.99965715 18.95239444 30.00056665 19 32 C18.01 32.33 17.02 32.66 16 33 C15.96036133 33.71542969 15.92072266 34.43085937 15.87988281 35.16796875 C15.68795469 38.44665244 15.46919526 41.72303083 15.25 45 C15.1571875 46.68802734 15.1571875 46.68802734 15.0625 48.41015625 C14.58428118 55.22477441 13.75646809 60.22919395 10 66 C4.90206005 69.16932968 -0.13703273 69.31408753 -6 69 C-6.33 68.01 -6.66 67.02 -7 66 C-8.99817859 65.50864461 -10.99849457 65.02318676 -13.01171875 64.59765625 C-15.76160436 63.77106981 -17.06313409 62.0659903 -19 60 C-20.010625 59.773125 -21.02125 59.54625 -22.0625 59.3125 C-25 58 -25 58 -25.9453125 56.3359375 C-27.15665643 52.8294156 -27.94015721 49.28458573 -28.703125 45.65625 C-28.94546875 44.5115625 -29.1878125 43.366875 -29.4375 42.1875 C-29.64246094 41.10855469 -29.84742188 40.02960937 -30.05859375 38.91796875 C-31.12154634 35.62325677 -32.52735371 34.34063643 -35 32 C-35 31.01 -35 30.02 -35 29 C-34.01 29 -33.02 29 -32 29 C-32.15855469 28.45085938 -32.31710938 27.90171875 -32.48046875 27.3359375 C-33.75488487 21.60585599 -34.03026143 15.88289159 -31.1875 10.6875 C-30.465625 9.800625 -29.74375 8.91375 -29 8 C-28.505 6.948125 -28.01 5.89625 -27.5 4.8125 C-25.88246181 1.77961589 -25.03917255 0.56065618 -22 -1 C-14.34382268 -2.42742289 -7.27111612 -2.90844645 0 0 Z M-18 11 C-21.60480533 15.89223581 -21.13484538 20.40371104 -20.71484375 26.1953125 C-21.07902312 29.7772411 -22.36378375 30.6712583 -25 33 C-25.79681318 35.64184541 -25.79681318 35.64184541 -26 38 C-26.99 38 -27.98 38 -29 38 C-27.49872978 47.8167679 -27.49872978 47.8167679 -24 57 C-21.18810561 58.35416491 -21.18810561 58.35416491 -18 59 C-17.01 59.845625 -16.02 60.69125 -15 61.5625 C-11.80885187 64.15530785 -10.03374284 64.71187551 -6 65 C-5.67 65.99 -5.34 66.98 -5 68 C0.12468427 68.38435132 4.63325839 67.77799094 9 65 C12.59821689 60.62786496 13.08999863 56.79024943 12.97705078 51.2097168 C13.00101079 48.90267418 13.23352099 46.7074919 13.54296875 44.421875 C13.64673828 43.65359375 13.75050781 42.8853125 13.85742188 42.09375 C14.07986348 40.51428301 14.31184076 38.93613322 14.55273438 37.359375 C15.23084557 32.71727597 15.23084557 32.71727597 13.55078125 28.453125 C13.03902344 27.97359375 12.52726562 27.4940625 12 27 C11.01 27.495 11.01 27.495 10 28 C10 27.34 10 26.68 10 26 C7.36 26 4.72 26 2 26 C4 24 4 24 6.4375 23.8125 C9 24 9 24 12 25 C12.96944962 22.18859611 13.74776686 19.9269554 14 17 C11.81773636 12.70664544 11.81773636 12.70664544 8 10 C4.38693252 9.60766176 0.75441605 9.48543914 -2.875 9.3125 C-3.88175781 9.25255859 -4.88851562 9.19261719 -5.92578125 9.13085938 C-6.89644531 9.08380859 -7.86710937 9.03675781 -8.8671875 8.98828125 C-9.75519043 8.94227783 -10.64319336 8.89627441 -11.55810547 8.84887695 C-14.24688465 9.0152791 -15.74383134 9.55224558 -18 11 Z " fill="#20151E" transform="translate(62,16)"/>
<path d="M0 0 C0.10957031 0.59167969 0.21914063 1.18335938 0.33203125 1.79296875 C1.25228178 6.37925799 2.13660887 10.18214516 5 14 C5.66 14.33 6.32 14.66 7 15 C6.67 17.31 6.34 19.62 6 22 C6.763125 22.103125 7.52625 22.20625 8.3125 22.3125 C11.19807812 23.05067115 12.26179817 23.62140803 14 26 C14 26.99 14 27.98 14 29 C14.99 29.33 15.98 29.66 17 30 C17 29.34 17 28.68 17 28 C20.71599191 27.79913557 21.77208445 27.8480563 25 30 C25.23783203 29.15115234 25.23783203 29.15115234 25.48046875 28.28515625 C26.18581705 26.06779058 26.89153152 24.04806871 28 22 C30.6875 21 30.6875 21 33 21 C33.48115849 26.77390182 32.72580536 31.37916877 29 36 C24.64014732 38.78288469 20.1195016 39.38396262 15 39 C14.67 38.01 14.34 37.02 14 36 C12.00182141 35.50864461 10.00150543 35.02318676 7.98828125 34.59765625 C5.23839564 33.77106981 3.93686591 32.0659903 2 30 C0.989375 29.773125 -0.02125 29.54625 -1.0625 29.3125 C-4 28 -4 28 -4.98046875 26.23046875 C-6.90568976 20.65025963 -7.97030249 14.8026483 -9 9 C-8.01 9 -7.02 9 -6 9 C-5.731875 8.071875 -5.46375 7.14375 -5.1875 6.1875 C-2.88235294 0 -2.88235294 0 0 0 Z " fill="#BF9372" transform="translate(42,45)"/>
<path d="M0 0 C0.98484375 0.02707031 1.9696875 0.05414062 2.984375 0.08203125 C3.73203125 0.11683594 4.4796875 0.15164062 5.25 0.1875 C5.25 1.1775 5.25 2.1675 5.25 3.1875 C7.23 4.1775 9.21 5.1675 11.25 6.1875 C9.4375 6.8125 9.4375 6.8125 7.25 7.1875 C6.26 6.5275 5.27 5.8675 4.25 5.1875 C0.22508435 4.65084458 -1.4863781 5.03828006 -5.0625 7.0625 C-7.78696671 8.90791271 -7.78696671 8.90791271 -8.75 11.1875 C-8.7093149 14.76039174 -8.62390003 18.32201131 -8.44726562 21.890625 C-8.31253693 27.65900926 -8.31253693 27.65900926 -10.68359375 30.5234375 C-11.70646484 31.34714844 -11.70646484 31.34714844 -12.75 32.1875 C-14.01784124 35.32100717 -14.01784124 35.32100717 -14.75 38.1875 C-18.53449552 36.92600149 -18.88176857 35.59905305 -20.75 32.1875 C-21.41 31.1975 -22.07 30.2075 -22.75 29.1875 C-21.76 29.1875 -20.77 29.1875 -19.75 29.1875 C-19.915 28.383125 -20.08 27.57875 -20.25 26.75 C-20.415 25.574375 -20.58 24.39875 -20.75 23.1875 C-20.853125 22.46433594 -20.95625 21.74117187 -21.0625 20.99609375 C-21.53807202 15.14061328 -21.53807202 15.14061328 -19.2578125 12.3828125 C-17.375 10.8125 -17.375 10.8125 -15.4765625 9.4765625 C-13.46767799 8.12679367 -13.46767799 8.12679367 -11.75 5.1875 C-7.82550513 1.26300513 -5.6888892 -0.20317461 0 0 Z " fill="#673C3B" transform="translate(50.75,16.8125)"/>
<path d="M0 0 C0.48115849 5.77390182 -0.27419464 10.37916877 -4 15 C-8.35985268 17.78288469 -12.8804984 18.38396262 -18 18 C-18.33 17.01 -18.66 16.02 -19 15 C-20.87387216 14.19787372 -20.87387216 14.19787372 -23.0625 13.8125 C-23.79597656 13.65394531 -24.52945313 13.49539062 -25.28515625 13.33203125 C-25.85105469 13.22246094 -26.41695312 13.11289063 -27 13 C-28.125 8.25 -28.125 8.25 -27 6 C-26.01 6 -25.02 6 -24 6 C-23.67 6.66 -23.34 7.32 -23 8 C-22.01 7.67 -21.02 7.34 -20 7 C-20 7.66 -20 8.32 -20 9 C-18.68 9 -17.36 9 -16 9 C-16 8.34 -16 7.68 -16 7 C-12.28400809 6.79913557 -11.22791555 6.8480563 -8 9 C-7.80664062 8.43410156 -7.61328125 7.86820312 -7.4140625 7.28515625 C-7.15367188 6.55167969 -6.89328125 5.81820312 -6.625 5.0625 C-6.24214844 3.96615234 -6.24214844 3.96615234 -5.8515625 2.84765625 C-4.47204397 -0.14551928 -3.21949519 0 0 0 Z " fill="#9B6C57" transform="translate(75,66)"/>
<path d="M0 0 C2.203125 1.27734375 2.203125 1.27734375 4.25 2.9375 C5.27867188 3.75541016 5.27867188 3.75541016 6.328125 4.58984375 C8 6 8 6 9 7 C9.48886833 15.33951862 8.74985465 23.69803775 8 32 C6.68 32 5.36 32 4 32 C3.34 31.01 2.68 30.02 2 29 C1.34 29 0.68 29 0 29 C0 28.34 0 27.68 0 27 C-2.64 27 -5.28 27 -8 27 C-7.67 26.01 -7.34 25.02 -7 24 C-3.625 23.875 -3.625 23.875 0 24 C0.66 24.66 1.32 25.32 2 26 C2.33 23.69 2.66 21.38 3 19 C3.66 19 4.32 19 5 19 C5.40758262 14.96088007 5.40758262 14.96088007 5 11 C1.30435163 7.56832651 -2.03050456 6.47328528 -7 6 C-7 5.67 -7 5.34 -7 5 C-5.35 4.67 -3.7 4.34 -2 4 C-4.31 4 -6.62 4 -9 4 C-9 3.34 -9 2.68 -9 2 C-5.84028457 0.12757604 -3.65846739 -0.34349247 0 0 Z " fill="#663B3A" transform="translate(72,15)"/>
<path d="M0 0 C0.99837891 0.0103125 1.99675781 0.020625 3.02539062 0.03125 C10.40838222 0.28702319 10.40838222 0.28702319 14.32421875 3.2421875 C16.1875 5.875 16.1875 5.875 17.1875 8.875 C16.58956327 11.22688447 15.92868205 13.56425595 15.1875 15.875 C14.1975 15.545 13.2075 15.215 12.1875 14.875 C12.5175 14.215 12.8475 13.555 13.1875 12.875 C12.5275 12.875 11.8675 12.875 11.1875 12.875 C9.7025 8.42 9.7025 8.42 8.1875 3.875 C-4.97147826 2.82725303 -4.97147826 2.82725303 -16.44140625 8.5625 C-16.89386719 8.995625 -17.34632812 9.42875 -17.8125 9.875 C-15.92414466 3.33838535 -15.92414466 3.33838535 -12.8125 0.875 C-8.95898072 -1.05175964 -4.22296861 -0.1401368 0 0 Z " fill="#C09473" transform="translate(58.8125,25.125)"/>
<path d="M0 0 C0.99 0 1.98 0 3 0 C4.6875 2.5 4.6875 2.5 6 5 C6.66 4.01 7.32 3.02 8 2 C8.474375 2.66 8.94875 3.32 9.4375 4 C10.2109375 4.99 10.2109375 4.99 11 6 C11.33 6 11.66 6 12 6 C14 11.625 14 11.625 14 15 C13.01 16.485 13.01 16.485 12 18 C9.36 17.67 6.72 17.34 4 17 C1.90429574 11.30601106 0.54981916 6.04801071 0 0 Z " fill="#89594B" transform="translate(34,56)"/>
<path d="M0 0 C0.66 0.33 1.32 0.66 2 1 C2 1.99 2 2.98 2 4 C4.31 4 6.62 4 9 4 C9 3.34 9 2.68 9 2 C12.26732895 0.94292299 13.86571316 0.95787079 17.1875 2 C20 4 20 4 21.4375 7.5625 C22 11 22 11 21 13 C20.071875 11.5459375 20.071875 11.5459375 19.125 10.0625 C17.34321154 6.97164638 17.34321154 6.97164638 15 6 C11.38619172 5.63385034 7.75329963 5.53174992 4.125 5.375 C2.61486328 5.29765625 2.61486328 5.29765625 1.07421875 5.21875 C0.10355469 5.17492187 -0.86710937 5.13109375 -1.8671875 5.0859375 C-2.75519043 5.0451709 -3.64319336 5.0044043 -4.55810547 4.96240234 C-6.94332849 4.99912743 -8.78095479 5.12015073 -11 6 C-12.3045656 8.99615946 -12.3045656 8.99615946 -13 12 C-13.33 12 -13.66 12 -14 12 C-13.63166144 5.61546499 -13.63166144 5.61546499 -10.5625 2.625 C-6.69065631 0.16968449 -4.60639827 -0.19193326 0 0 Z " fill="#341C27" transform="translate(55,21)"/>
<path d="M0 0 C0.98484375 0.02707031 1.9696875 0.05414062 2.984375 0.08203125 C3.73203125 0.11683594 4.4796875 0.15164062 5.25 0.1875 C5.25 1.1775 5.25 2.1675 5.25 3.1875 C7.23 4.1775 9.21 5.1675 11.25 6.1875 C9.4375 6.8125 9.4375 6.8125 7.25 7.1875 C6.26 6.5275 5.27 5.8675 4.25 5.1875 C-0.99980923 4.33287989 -3.78986232 6.16255017 -7.91796875 9.09375 C-9.75 10.1875 -9.75 10.1875 -12.75 10.1875 C-14.25930183 13.5738251 -14.25930183 13.5738251 -14.75 17.1875 C-16.4 16.8575 -18.05 16.5275 -19.75 16.1875 C-18.00131522 13.10648396 -16.3038515 10.63031447 -13.75 8.1875 C-13.09 7.1975 -12.43 6.2075 -11.75 5.1875 C-7.82550513 1.26300513 -5.6888892 -0.20317461 0 0 Z M-18.75 17.1875 C-18.42 18.1775 -18.09 19.1675 -17.75 20.1875 C-17.09 20.5175 -16.43 20.8475 -15.75 21.1875 C-16.74 21.1875 -17.73 21.1875 -18.75 21.1875 C-18.75 19.8675 -18.75 18.5475 -18.75 17.1875 Z " fill="#70413D" transform="translate(50.75,16.8125)"/>
<path d="M0 0 C0 0.66 0 1.32 0 2 C0.66 2 1.32 2 2 2 C0.25 5.875 0.25 5.875 -2 7 C-4.0234375 6.94921875 -4.0234375 6.94921875 -6.375 6.6875 C-7.53128906 6.56955078 -7.53128906 6.56955078 -8.7109375 6.44921875 C-11.09760878 5.98084469 -12.88597746 5.18250119 -15 4 C-14.06788763 1.66971908 -13.30996602 0.24108468 -11.3125 -1.3125 C-7.44997129 -2.46081935 -3.58175492 -1.79087746 0 0 Z " fill="#B48669" transform="translate(67,61)"/>
<path d="M0 0 C0.99 0 1.98 0 3 0 C3.33 0.66 3.66 1.32 4 2 C4.99 1.67 5.98 1.34 7 1 C7 1.66 7 2.32 7 3 C7.99 3 8.98 3 10 3 C10.33 3.66 10.66 4.32 11 5 C11.99 4.67 12.98 4.34 14 4 C14.125 9.75 14.125 9.75 13 12 C11.35 11.67 9.7 11.34 8 11 C8 10.34 8 9.68 8 9 C5.36 8.34 2.72 7.68 0 7 C-1.125 2.25 -1.125 2.25 0 0 Z " fill="#9C6B54" transform="translate(48,72)"/>
<path d="M0 0 C2.34733498 2.46864429 2.98470937 3.66897846 3.14453125 7.12890625 C3.03496094 8.26199219 2.92539063 9.39507812 2.8125 10.5625 C2.71582031 11.69816406 2.61914062 12.83382812 2.51953125 14.00390625 C2 17 2 17 0 20 C0 17.69 0 15.38 0 13 C-0.928125 12.566875 -0.928125 12.566875 -1.875 12.125 C-4 11 -4 11 -6 9 C-6 8.01 -6 7.02 -6 6 C-4.35 5.34 -2.7 4.68 -1 4 C-1.33 3.01 -1.66 2.02 -2 1 C-1.34 0.67 -0.68 0.34 0 0 Z " fill="#E7D5B3" transform="translate(74,43)"/>
<path d="M0 0 C2 5.625 2 5.625 2 9 C1.01 10.485 1.01 10.485 0 12 C-2.97 11.505 -2.97 11.505 -6 11 C-6 7.7 -6 4.4 -6 1 C-4 0 -4 0 0 0 Z " fill="#9F705A" transform="translate(46,62)"/>
<path d="M0 0 C1.76462683 3.08809695 2 4.23312136 2 8 C2.66 8 3.32 8 4 8 C4.66 9.32 5.32 10.64 6 12 C5.34 12.61875 4.68 13.2375 4 13.875 C1.7715451 15.75637427 1.7715451 15.75637427 2 18 C0.35 17.67 -1.3 17.34 -3 17 C-2.01 16.67 -1.02 16.34 0 16 C-0.165 15.195625 -0.33 14.39125 -0.5 13.5625 C-1.08838658 9.37024562 -1.30265114 5.22821441 -1 1 C-0.67 0.67 -0.34 0.34 0 0 Z " fill="#4F2D31" transform="translate(31,30)"/>
<path d="M0 0 C2.375 -0.125 2.375 -0.125 5 0 C7 2 7 2 7 5 C6.67 5.33 6.34 5.66 6 6 C6.33 6.33 6.66 6.66 7 7 C7.99 6.01 8.98 5.02 10 4 C9.67 5.65 9.34 7.3 9 9 C6.69 9.66 4.38 10.32 2 11 C2 8.69 2 6.38 2 4 C1.01 4.33 0.02 4.66 -1 5 C-0.67 3.35 -0.34 1.7 0 0 Z " fill="#B38262" transform="translate(59,73)"/>
<path d="M0 0 C3.00617269 3.00617269 2.59585316 5.82381598 3 10 C-1 6 -1 6 -2.3125 4.3125 C-4.94690509 2.26351826 -7.7525833 2.30636007 -11 2 C-10.67 1.01 -10.34 0.02 -10 -1 C-6.02337646 -2.32554118 -3.90112089 -1.34765994 0 0 Z " fill="#341C27" transform="translate(74,24)"/>
<path d="M0 0 C-1.66666667 1.66666667 -3.33333333 3.33333333 -5 5 C-5.825 5.845625 -6.65 6.69125 -7.5 7.5625 C-9.88851225 9.89129944 -12.360462 11.96378497 -15 14 C-9.4019544 -0.64104235 -9.4019544 -0.64104235 0 0 Z " fill="#48282F" transform="translate(47,16)"/>
<path d="M0 0 C4 1 4 1 5.6875 3.375 C7.7389703 7.47794061 8.07356716 9.58644614 7 14 C6.01 13.67 5.02 13.34 4 13 C4.33 12.34 4.66 11.68 5 11 C4.34 11 3.68 11 3 11 C2.01 7.37 1.02 3.74 0 0 Z " fill="#C09473" transform="translate(67,27)"/>
<path d="M0 0 C0.98935547 0.01482422 1.97871094 0.02964844 2.99804688 0.04492188 C7.77080702 0.23429165 10.30432039 0.36294941 14.19140625 3.30859375 C16.0625 5.9375 16.0625 5.9375 17.0625 8.9375 C15.125 8.1875 15.125 8.1875 13.0625 6.9375 C12.43359375 4.859375 12.43359375 4.859375 12.0625 2.9375 C8.50092366 2.71072793 4.93834575 2.50934521 1.375 2.3125 C-0.13610352 2.21582031 -0.13610352 2.21582031 -1.67773438 2.1171875 C-3.14243164 2.03984375 -3.14243164 2.03984375 -4.63671875 1.9609375 C-5.53221436 1.90856934 -6.42770996 1.85620117 -7.3503418 1.80224609 C-10.24518941 1.95358568 -12.32008597 2.72882812 -14.9375 3.9375 C-14.9375 3.2775 -14.9375 2.6175 -14.9375 1.9375 C-10.09211038 -0.90938569 -5.45499633 -0.23009394 0 0 Z " fill="#AD7757" transform="translate(58.9375,25.0625)"/>
<path d="M0 0 C0.66 0 1.32 0 2 0 C2.33 0.66 2.66 1.32 3 2 C3.99 1.67 4.98 1.34 6 1 C6.125 6.75 6.125 6.75 5 9 C3.35 8.67 1.7 8.34 0 8 C0 5.36 0 2.72 0 0 Z " fill="#815348" transform="translate(56,75)"/>
<path d="M0 0 C5.625 -0.25 5.625 -0.25 9 2 C9 2.66 9 3.32 9 4 C2.375 5.25 2.375 5.25 -1 3 C-0.67 2.01 -0.34 1.02 0 0 Z " fill="#A18676" transform="translate(64,43)"/>
<path d="M0 0 C2.57147284 1.28573642 2.63147834 2.21354542 3.5625 4.875 C3.93568359 5.92300781 3.93568359 5.92300781 4.31640625 6.9921875 C4.88400092 8.65929413 5.44309712 10.32929135 6 12 C6.99 12.33 7.98 12.66 9 13 C8.67 13.99 8.34 14.98 8 16 C7.67 15.34 7.34 14.68 7 14 C5.02 14.99 5.02 14.99 3 16 C2.67 15.34 2.34 14.68 2 14 C2.66 14 3.32 14 4 14 C3.566875 12.9171875 3.566875 12.9171875 3.125 11.8125 C2.75375 10.884375 2.3825 9.95625 2 9 C1.62875 8.154375 1.2575 7.30875 0.875 6.4375 C0 4 0 4 0 0 Z " fill="#E7D5B3" transform="translate(59,41)"/>
<path d="M0 0 C0.91007812 0.00902344 1.82015625 0.01804688 2.7578125 0.02734375 C3.45648438 0.03894531 4.15515625 0.05054688 4.875 0.0625 C4.545 1.3825 4.215 2.7025 3.875 4.0625 C0.905 3.7325 -2.065 3.4025 -5.125 3.0625 C-5.455 3.7225 -5.785 4.3825 -6.125 5.0625 C-6.785 4.7325 -7.445 4.4025 -8.125 4.0625 C-7.795 3.0725 -7.465 2.0825 -7.125 1.0625 C-4.60024538 -0.19987731 -2.81299534 -0.03606404 0 0 Z " fill="#956652" transform="translate(52.125,37.9375)"/>
<path d="M0 0 C0.66 0.66 1.32 1.32 2 2 C1.13375 1.938125 0.2675 1.87625 -0.625 1.8125 C-4.62669674 2.03481649 -6.69733748 2.72483249 -10 5 C-11.36539589 7.30122903 -12.13117557 9.44179473 -13 12 C-13.33 12 -13.66 12 -14 12 C-13.63166144 5.61546499 -13.63166144 5.61546499 -10.5625 2.625 C-6.71194212 0.18318281 -4.5957269 -0.28723293 0 0 Z " fill="#492830" transform="translate(55,21)"/>
<path d="M0 0 C2.31 0.33 4.62 0.66 7 1 C6.67 3.64 6.34 6.28 6 9 C5.34 8.67 4.68 8.34 4 8 C3.855625 7.360625 3.71125 6.72125 3.5625 6.0625 C3.13834965 3.61789145 3.13834965 3.61789145 0 2 C0 1.34 0 0.68 0 0 Z " fill="#E7D5B3" transform="translate(46,51)"/>
<path d="M0 0 C6.0546875 -0.1953125 6.0546875 -0.1953125 8 0 C10 2 10 2 10 5 C9.34 5 8.68 5 8 5 C8 4.34 8 3.68 8 3 C5.36 3 2.72 3 0 3 C0 2.01 0 1.02 0 0 Z " fill="#8C5E4F" transform="translate(64,39)"/>
<path d="M0 0 C0.66 0.33 1.32 0.66 2 1 C1.01 3.31 0.02 5.62 -1 8 C-1.99 7.67 -2.98 7.34 -4 7 C-4 5.35 -4 3.7 -4 2 C-2.125 0.9375 -2.125 0.9375 0 0 Z " fill="#3C212A" transform="translate(37,47)"/>
<path d="M0 0 C-0.99 0.66 -1.98 1.32 -3 2 C-3 2.66 -3 3.32 -3 4 C-3.99 4 -4.98 4 -6 4 C-6.33 3.34 -6.66 2.68 -7 2 C-7.99 1.67 -8.98 1.34 -10 1 C-6.1496895 -1.56687367 -4.41430237 -0.83288724 0 0 Z " fill="#876C64" transform="translate(56,44)"/>
<path d="M0 0 C3.73678306 4.71159603 4.11284843 8.01903338 4 14 C0.68518684 10.68518684 0.02786228 7.84979946 -0.125 3.1875 C-0.063125 1.6096875 -0.063125 1.6096875 0 0 Z " fill="#7A4841" transform="translate(38,28)"/>
<path d="M0 0 C0.33 0 0.66 0 1 0 C3 5.625 3 5.625 3 9 C2.67 9.66 2.34 10.32 2 11 C1.34 11 0.68 11 0 11 C-1.125 3.375 -1.125 3.375 0 0 Z " fill="#AC795B" transform="translate(45,62)"/>
<path d="M0 0 C0.66 0.33 1.32 0.66 2 1 C1.01 2.32 0.02 3.64 -1 5 C0.65 4.67 2.3 4.34 4 4 C3.67 4.99 3.34 5.98 3 7 C1.35 6.67 -0.3 6.34 -2 6 C-2 2 -2 2 0 0 Z " fill="#C09473" transform="translate(56,51)"/>
<path d="M0 0 C-0.33 2.64 -0.66 5.28 -1 8 C-1.99 8 -2.98 8 -4 8 C-4.1875 5.125 -4.1875 5.125 -4 2 C-1 0 -1 0 0 0 Z " fill="#44262E" transform="translate(80,35)"/>
<path d="M0 0 C1.98 0.66 3.96 1.32 6 2 C5.67 2.99 5.34 3.98 5 5 C3.02 4.34 1.04 3.68 -1 3 C-0.67 2.01 -0.34 1.02 0 0 Z " fill="#865547" transform="translate(61,59)"/>
<path d="M0 0 C1.5625 1.8125 1.5625 1.8125 3 4 C2.67 4.99 2.34 5.98 2 7 C-0.475 6.01 -0.475 6.01 -3 5 C-2.34 4.67 -1.68 4.34 -1 4 C-1.33 3.01 -1.66 2.02 -2 1 C-1.34 0.67 -0.68 0.34 0 0 Z " fill="#D7B594" transform="translate(74,43)"/>
<path d="M0 0 C3.63 0 7.26 0 11 0 C11.33 0.66 11.66 1.32 12 2 C8.37 2.33 4.74 2.66 1 3 C0.67 2.01 0.34 1.02 0 0 Z " fill="#75453F" transform="translate(45,17)"/>
<path d="M0 0 C2.0625 0.4375 2.0625 0.4375 4 1 C3.67 2.65 3.34 4.3 3 6 C2.34 6 1.68 6 1 6 C0.34 4.35 -0.32 2.7 -1 1 C-0.67 0.67 -0.34 0.34 0 0 Z " fill="#AA7B60" transform="translate(53,75)"/>
<path d="M0 0 C1.41377341 2.63904371 2.37240135 5.07120629 3 8 C2.01 8.495 2.01 8.495 1 9 C-0.61949011 6.42786866 -1.04408751 5.32330841 -0.625 2.25 C-0.41875 1.5075 -0.2125 0.765 0 0 Z " fill="#B48161" transform="translate(37,64)"/>
<path d="M0 0 C1.65 0 3.3 0 5 0 C4.67 0.99 4.34 1.98 4 3 C1.69 3.33 -0.62 3.66 -3 4 C-2.67 3.34 -2.34 2.68 -2 2 C-1.01 2.33 -0.02 2.66 1 3 C0.67 2.01 0.34 1.02 0 0 Z " fill="#C9AA8A" transform="translate(52,45)"/>
</svg>
